<?xml version="1.0" encoding="utf-8"?>
<!-- Generator: Adobe Illustrator 19.0.0, SVG Export Plug-In . SVG Version: 6.00 Build 0)  -->
<svg version="1.1" id="Camada_1" xmlns="http://www.w3.org/2000/svg" xmlns:xlink="http://www.w3.org/1999/xlink" x="0px" y="0px"
	 viewBox="0 0 448.4 103.4" style="enable-background:new 0 0 448.4 103.4;" xml:space="preserve">
<style type="text/css">
	.st0{fill:#FFFFFF;}
	.st1{fill:none;stroke:#FFFFFF;stroke-width:3;stroke-miterlimit:10;}
	.st2{clip-path:url(#SVGID_2_);fill:#FFFFFF;}
	.st3{clip-path:url(#SVGID_2_);fill:none;stroke:#FFFFFF;stroke-width:3;stroke-miterlimit:10;}
	.st4{clip-path:url(#SVGID_2_);}
	.st5{clip-path:url(#SVGID_2_);fill:none;stroke:#211915;stroke-width:3;stroke-miterlimit:10;}
</style>
<rect width="241.5" height="103.4"/>
<polygon class="st0" points="17.4,24.3 24.9,24.3 40,59.7 54.8,24.3 62.4,24.3 62.4,78.7 54.4,78.7 54.4,44.8 54.2,44.8 43.2,70.9 
	36.6,70.9 25.5,44.8 25.4,44.8 25.4,78.7 17.4,78.7 "/>
<polygon class="st1" points="17.4,24.3 24.9,24.3 40,59.7 54.8,24.3 62.4,24.3 62.4,78.7 54.4,78.7 54.4,44.8 54.2,44.8 43.2,70.9 
	36.6,70.9 25.5,44.8 25.4,44.8 25.4,78.7 17.4,78.7 "/>
<path class="st0" d="M74.8,24.3h7.5v7.7h-7.5V24.3z M74.8,40h7.5v38.7h-7.5V40z"/>
<path class="st1" d="M74.8,24.3h7.5v7.7h-7.5V24.3z M74.8,40h7.5v38.7h-7.5V40z"/>
<g>
	<defs>
		<rect id="SVGID_1_" width="448.4" height="103.4"/>
	</defs>
	<clipPath id="SVGID_2_">
		<use xlink:href="#SVGID_1_"  style="overflow:visible;"/>
	</clipPath>
	<path class="st2" d="M92.9,40h7.5v4.1h0.1c2.5-3.1,5.7-4.6,9.7-4.6c3.1,0,5.9,1.1,8.5,3.4c2.5,2.3,3.9,5.6,4,10.1v25.7h-7.5V55.6
		c0-2.7-0.7-4.8-2.1-6.2c-1.4-1.4-3.1-2.2-5.3-2.2c-2.2,0-3.9,0.7-5.3,2.2c-1.4,1.4-2.1,3.5-2.1,6.2v23.1h-7.5V40z"/>
	<path class="st3" d="M92.9,40h7.5v4.1h0.1c2.5-3.1,5.7-4.6,9.7-4.6c3.1,0,5.9,1.1,8.5,3.4c2.5,2.3,3.9,5.6,4,10.1v25.7h-7.5V55.6
		c0-2.7-0.7-4.8-2.1-6.2c-1.4-1.4-3.1-2.2-5.3-2.2c-2.2,0-3.9,0.7-5.3,2.2c-1.4,1.4-2.1,3.5-2.1,6.2v23.1h-7.5V40z"/>
	<path class="st2" d="M133.9,40h7.5V63c0,2.6,0.7,4.7,2.1,6.1c1.4,1.5,3.2,2.2,5.3,2.2c2.2,0,3.9-0.7,5.3-2.2
		c1.4-1.5,2.1-3.5,2.1-6.1V40h7.5v38.7h-7.5v-4.1h-0.1c-2.5,3.1-5.7,4.6-9.7,4.6c-3.1,0-5.9-1.2-8.4-3.5c-2.7-2.2-4.1-5.5-4.1-9.9
		V40z"/>
	<path class="st3" d="M133.9,40h7.5V63c0,2.6,0.7,4.7,2.1,6.1c1.4,1.5,3.2,2.2,5.3,2.2c2.2,0,3.9-0.7,5.3-2.2
		c1.4-1.5,2.1-3.5,2.1-6.1V40h7.5v38.7h-7.5v-4.1h-0.1c-2.5,3.1-5.7,4.6-9.7,4.6c-3.1,0-5.9-1.2-8.4-3.5c-2.7-2.2-4.1-5.5-4.1-9.9
		V40z"/>
	<path class="st2" d="M175.4,28.2h7.5V40h5.5v6h-5.5v22.6c0,2,0.8,2.9,2.7,2.9h2.8v7.3h-3.9c-2.6,0-4.8-0.8-6.5-2.5
		c-1.7-1.6-2.6-3.9-2.6-7V45.9h-3.8v-6h3.8V28.2z"/>
	<path class="st3" d="M175.4,28.2h7.5V40h5.5v6h-5.5v22.6c0,2,0.8,2.9,2.7,2.9h2.8v7.3h-3.9c-2.6,0-4.8-0.8-6.5-2.5
		c-1.7-1.6-2.6-3.9-2.6-7V45.9h-3.8v-6h3.8V28.2z"/>
	<path class="st2" d="M194.3,59.3c0-4.1,0.3-7.2,1-9.4c0.7-2.1,1.7-3.9,3.1-5.4c1-1.3,2.5-2.4,4.3-3.4c1.8-1,4.2-1.5,7-1.5
		c3,0.1,5.4,0.6,7.2,1.5c1.8,1,3.2,2.2,4.2,3.5c1.5,1.5,2.5,3.3,3.2,5.4c0.6,2.2,0.9,5.3,0.9,9.4c0,4.1-0.3,7.2-0.9,9.3
		c-0.6,2.1-1.7,4-3.2,5.6c-0.5,0.6-1.1,1.1-1.8,1.7c-0.6,0.6-1.4,1.2-2.4,1.6c-1.8,1.1-4.2,1.6-7.2,1.7c-2.9-0.1-5.2-0.6-7-1.7
		c-1.9-1-3.3-2.1-4.3-3.3c-1.4-1.6-2.4-3.4-3.1-5.6C194.6,66.5,194.3,63.3,194.3,59.3 M217.6,59.3c0-2.8-0.1-4.8-0.4-6.1
		c-0.2-1.2-0.7-2.3-1.5-3.2c-0.6-0.9-1.4-1.6-2.5-2.1c-1-0.5-2.2-0.8-3.6-0.8c-1.3,0-2.5,0.3-3.5,0.8c-1,0.5-1.9,1.2-2.5,2.1
		c-0.7,0.9-1.1,2-1.4,3.2c-0.3,1.3-0.4,3.3-0.4,6c0,2.7,0.1,4.7,0.4,5.9c0.3,1.3,0.8,2.4,1.4,3.4c0.7,0.7,1.5,1.4,2.5,2
		c1.1,0.5,2.3,0.8,3.5,0.8c1.4,0,2.6-0.3,3.6-0.8c1.1-0.6,1.9-1.2,2.5-2c0.7-1,1.2-2.1,1.5-3.4C217.5,63.9,217.6,62,217.6,59.3"/>
	<path class="st3" d="M194.3,59.3c0-4.1,0.3-7.2,1-9.4c0.7-2.1,1.7-3.9,3.1-5.4c1-1.3,2.5-2.4,4.3-3.4c1.8-1,4.2-1.5,7-1.5
		c3,0.1,5.4,0.6,7.2,1.5c1.8,1,3.2,2.2,4.2,3.5c1.5,1.5,2.5,3.3,3.2,5.4c0.6,2.2,0.9,5.3,0.9,9.4c0,4.1-0.3,7.2-0.9,9.3
		c-0.6,2.1-1.7,4-3.2,5.6c-0.5,0.6-1.1,1.1-1.8,1.7c-0.6,0.6-1.4,1.2-2.4,1.6c-1.8,1.1-4.2,1.6-7.2,1.7c-2.9-0.1-5.2-0.6-7-1.7
		c-1.9-1-3.3-2.1-4.3-3.3c-1.4-1.6-2.4-3.4-3.1-5.6C194.6,66.5,194.3,63.3,194.3,59.3z M217.6,59.3c0-2.8-0.1-4.8-0.4-6.1
		c-0.2-1.2-0.7-2.3-1.5-3.2c-0.6-0.9-1.4-1.6-2.5-2.1c-1-0.5-2.2-0.8-3.6-0.8c-1.3,0-2.5,0.3-3.5,0.8c-1,0.5-1.9,1.2-2.5,2.1
		c-0.7,0.9-1.1,2-1.4,3.2c-0.3,1.3-0.4,3.3-0.4,6c0,2.7,0.1,4.7,0.4,5.9c0.3,1.3,0.8,2.4,1.4,3.4c0.7,0.7,1.5,1.4,2.5,2
		c1.1,0.5,2.3,0.8,3.5,0.8c1.4,0,2.6-0.3,3.6-0.8c1.1-0.6,1.9-1.2,2.5-2c0.7-1,1.2-2.1,1.5-3.4C217.5,63.9,217.6,62,217.6,59.3z"/>
	<polygon class="st4" points="258.3,24.3 265.8,24.3 289.6,62.9 289.8,62.9 289.8,24.3 297.8,24.3 297.8,78.7 290.2,78.7 266.4,40 
		266.3,40 266.3,78.7 258.3,78.7 	"/>
	<polygon class="st5" points="258.3,24.3 265.8,24.3 289.6,62.9 289.8,62.9 289.8,24.3 297.8,24.3 297.8,78.7 290.2,78.7 266.4,40 
		266.3,40 266.3,78.7 258.3,78.7 	"/>
	<path class="st4" d="M315.5,62.2c0,3.1,0.9,5.5,2.6,7.1c1.6,1.6,3.7,2.5,6.4,2.5c3.1,0,5.8-1.3,8.2-3.8l5.5,4.8
		c-3.8,4.2-8.3,6.3-13.5,6.3c-2,0-3.9-0.3-5.8-0.9c-0.9-0.3-1.9-0.8-2.7-1.3c-0.9-0.5-1.8-1.1-2.6-1.8c-1.6-1.4-2.9-3.5-3.9-6
		c-1.1-2.5-1.6-5.7-1.6-9.7c0-3.8,0.5-7,1.4-9.5c0.9-2.6,2.1-4.6,3.6-6.1c1.5-1.5,3.2-2.6,5-3.3c1.8-0.7,3.6-1,5.4-1
		c4.3,0,7.9,1.5,10.9,4.4c3,2.9,4.5,6.9,4.6,12v6.4H315.5z M331.3,55.8c-0.1-3-0.9-5.3-2.4-6.9c-1.4-1.5-3.3-2.2-5.6-2.2
		c-2.3,0-4.1,0.7-5.6,2.2c-1.4,1.5-2.2,3.8-2.4,6.9H331.3z"/>
	<path class="st5" d="M315.5,62.2c0,3.1,0.9,5.5,2.6,7.1c1.6,1.6,3.7,2.5,6.4,2.5c3.1,0,5.8-1.3,8.2-3.8l5.5,4.8
		c-3.8,4.2-8.3,6.3-13.5,6.3c-2,0-3.9-0.3-5.8-0.9c-0.9-0.3-1.9-0.8-2.7-1.3c-0.9-0.5-1.8-1.1-2.6-1.8c-1.6-1.4-2.9-3.5-3.9-6
		c-1.1-2.5-1.6-5.7-1.6-9.7c0-3.8,0.5-7,1.4-9.5c0.9-2.6,2.1-4.6,3.6-6.1c1.5-1.5,3.2-2.6,5-3.3c1.8-0.7,3.6-1,5.4-1
		c4.3,0,7.9,1.5,10.9,4.4c3,2.9,4.5,6.9,4.6,12v6.4H315.5z M331.3,55.8c-0.1-3-0.9-5.3-2.4-6.9c-1.4-1.5-3.3-2.2-5.6-2.2
		c-2.3,0-4.1,0.7-5.6,2.2c-1.4,1.5-2.2,3.8-2.4,6.9H331.3z"/>
	<polygon class="st4" points="369.9,51.5 369.7,51.5 361.9,78.7 355.3,78.7 343.3,40 351.2,40 358.4,67.1 358.6,67.1 367.1,40 
		372.5,40 381.1,67.1 381.2,67.1 388.4,40 396.3,40 384.4,78.7 377.7,78.7 	"/>
	<polygon class="st5" points="369.9,51.5 369.7,51.5 361.9,78.7 355.3,78.7 343.3,40 351.2,40 358.4,67.1 358.6,67.1 367.1,40 
		372.5,40 381.1,67.1 381.2,67.1 388.4,40 396.3,40 384.4,78.7 377.7,78.7 	"/>
	<path class="st4" d="M404.2,66.8c3.1,3.3,7,5,11.9,5c2.2,0,3.9-0.4,5.3-1.3c1.4-0.9,2.1-2.1,2.1-3.7c0-1.4-0.4-2.4-1.2-2.9
		c-0.8-0.6-2-0.9-3.4-0.9l-6.7-0.6c-3.2-0.3-5.7-1.4-7.7-3.3c-2-1.8-3.1-4.4-3.1-7.7c0-4,1.4-7,4.1-8.9c2.6-2,5.9-3,9.9-3
		c1.7,0,3.3,0.1,4.7,0.3c1.4,0.2,2.7,0.6,3.9,1c2.3,1,4.4,2.3,6.2,3.9l-4.7,5.6c-1.4-1.1-3-2-4.6-2.7c-1.6-0.6-3.4-0.9-5.5-0.9
		c-2.4,0-4,0.4-5,1.3c-1,0.9-1.5,2-1.5,3.4c0,0.9,0.3,1.6,1.1,2.3c0.7,0.7,2,1.2,3.8,1.4l6.2,0.5c3.9,0.3,6.7,1.5,8.5,3.7
		c1.6,2.1,2.4,4.7,2.4,7.9c0,3.8-1.5,6.7-4.4,8.7c-2.9,2.1-6.6,3.2-11.1,3.2c-6.1,0-11.6-2.3-16.5-6.9L404.2,66.8z"/>
	<path class="st5" d="M404.2,66.8c3.1,3.3,7,5,11.9,5c2.2,0,3.9-0.4,5.3-1.3c1.4-0.9,2.1-2.1,2.1-3.7c0-1.4-0.4-2.4-1.2-2.9
		c-0.8-0.6-2-0.9-3.4-0.9l-6.7-0.6c-3.2-0.3-5.7-1.4-7.7-3.3c-2-1.8-3.1-4.4-3.1-7.7c0-4,1.4-7,4.1-8.9c2.6-2,5.9-3,9.9-3
		c1.7,0,3.3,0.1,4.7,0.3c1.4,0.2,2.7,0.6,3.9,1c2.3,1,4.4,2.3,6.2,3.9l-4.7,5.6c-1.4-1.1-3-2-4.6-2.7c-1.6-0.6-3.4-0.9-5.5-0.9
		c-2.4,0-4,0.4-5,1.3c-1,0.9-1.5,2-1.5,3.4c0,0.9,0.3,1.6,1.1,2.3c0.7,0.7,2,1.2,3.8,1.4l6.2,0.5c3.9,0.3,6.7,1.5,8.5,3.7
		c1.6,2.1,2.4,4.7,2.4,7.9c0,3.8-1.5,6.7-4.4,8.7c-2.9,2.1-6.6,3.2-11.1,3.2c-6.1,0-11.6-2.3-16.5-6.9L404.2,66.8z"/>
</g>
</svg>
